<svg id="Layer_1" data-name="Layer 1" xmlns="http://www.w3.org/2000/svg" viewBox="0 -50 200 200">
  <title>Yuzu Logo</title>
  <g>
    <g class="st0">
      <path class="st1" d="M59.8,130.4h-1.5v-7.3l-8.5-12.8h1.7l7.6,11.3l7.5-11.3h1.7l-8.5,12.8V130.4z"/>
    </g>
    <g class="st0">
      <path class="st1" d="M94.9,121.8c0,5.4-3.3,9-8.2,9c-5,0-8.3-3.6-8.3-9v-11.4h1.5v11.4c0,4.6,2.7,7.6,6.8,7.6c4,0,6.7-3,6.7-7.6
			v-11.4h1.5V121.8z"/>
    </g>
    <g class="st0">
      <path class="st1" d="M121.2,130.4H106v-1l13.2-17.8h-12.8v-1.3h14.8v1.1l-13,17.7h13V130.4z"/>
      <path class="st1" d="M148.9,121.8c0,5.4-3.3,9-8.2,9c-5,0-8.3-3.6-8.3-9v-11.4h1.5v11.4c0,4.6,2.7,7.6,6.8,7.6c4,0,6.7-3,6.7-7.6
			v-11.4h1.5V121.8z"/>
    </g>
  </g>
  <path class="st1" d="M100.8,83.9c-22.4,0-40.5-18.1-40.5-40.5S78.4,2.9,100.8,2.9s40.5,18.1,40.5,40.5
	C141.3,65.8,123.1,83.9,100.8,83.9z M100.8,3.9C79,3.9,61.3,21.6,61.3,43.4S79,82.9,100.8,82.9c9.8,0,14.8-11.1,21.5-17.3
	c7-6.5,18-10.3,18-22.2C140.3,21.6,122.6,3.9,100.8,3.9z"/>
</svg>